<?xml version="1.0" encoding="UTF-8"?>
<svg xmlns="http://www.w3.org/2000/svg" viewBox="0 0 512 512" width="512" height="512">
  <!-- Background transparent -->
  <rect width="100%" height="100%" fill="none" />

  <!-- Outer circle -->
  <circle cx="256" cy="256" r="220" fill="#ffffff" stroke="#000000" stroke-width="20" />

  <!-- Robot body (simple) -->
  <g transform="translate(0,10)" fill="#000000">
    <!-- Head -->
    <rect x="150" y="140" width="212" height="140" rx="40" ry="40" fill="#000000" />
    <!-- Face cutout (white) -->
    <rect x="170" y="160" width="172" height="100" rx="28" ry="28" fill="#ffffff" />

    <!-- Headset ear on left -->
    <rect x="118" y="170" width="40" height="70" rx="12" fill="#000000" />
    <!-- Headset ear on right -->
    <rect x="354" y="170" width="40" height="70" rx="12" fill="#000000" />

    <!-- Winking eye (left: circle, right: wink line) -->
    <circle cx="230" cy="210" r="12" fill="#000000" />
    <rect x="285" y="205" width="40" height="8" rx="4" fill="#000000" />

    <!-- Smiley mouth -->
    <path d="M220 245 q36 30 72 0" stroke="#000000" stroke-width="8" fill="none" stroke-linecap="round" />

    <!-- Laptop in front -->
    <g transform="translate(60,240)">
      <!-- Base -->
      <rect x="110" y="10" width="292" height="110" rx="10" ry="10" fill="#000000" />
      <!-- Screen inner -->
      <rect x="130" y="22" width="252" height="70" rx="6" ry="6" fill="#ffffff" />
      <!-- Screen lines (code) -->
      <rect x="150" y="36" width="110" height="8" rx="4" ry="4" fill="#000000" />
      <rect x="150" y="54" width="70" height="8" rx="4" ry="4" fill="#000000" />
      <!-- Cursor arrow -->
      <path d="M340 58 L322 86 L338 76 L354 100 L354 54 Z" fill="#000000" transform="scale(0.7) translate(80,-8)" />
    </g>
  </g>
</svg>
